<svg width="30" height="30" viewBox="0 0 30 30" fill="none" xmlns="http://www.w3.org/2000/svg">
<path d="M11.7307 25.8571V22.1278C11.7307 21.1758 12.5081 20.404 13.4671 20.404H16.9726C17.4331 20.404 17.8747 20.5856 18.2004 20.9089C18.526 21.2322 18.7089 21.6706 18.7089 22.1278V25.8571C18.706 26.2529 18.8624 26.6335 19.1433 26.9143C19.4242 27.1952 19.8064 27.3532 20.2051 27.3532H22.5967C23.7136 27.3561 24.7858 26.9176 25.5767 26.1345C26.3675 25.3515 26.812 24.2882 26.812 23.1793V12.555C26.812 11.6593 26.412 10.8097 25.7199 10.235L17.5841 3.78453C16.1689 2.65354 14.1412 2.69006 12.7682 3.87126L4.81804 10.235C4.09324 10.7927 3.66003 11.6449 3.63863 12.555V23.1685C3.63863 25.4796 5.52589 27.3532 7.85395 27.3532H10.1909C11.019 27.3532 11.692 26.69 11.698 25.868L11.7307 25.8571Z" fill="#5D7285"/>
</svg>
