<svg width="22" height="18" viewBox="0 0 22 18" fill="none" xmlns="http://www.w3.org/2000/svg">
<path d="M19.5556 1.8H14.4467C13.9333 0.756 12.5889 0 11 0C9.41111 0 8.06667 0.756 7.55333 1.8H2.44444C1.1 1.8 0 2.61 0 3.6V16.2C0 17.19 1.1 18 2.44444 18H19.5556C20.9 18 22 17.19 22 16.2V3.6C22 2.61 20.9 1.8 19.5556 1.8ZM11 1.8C11.6722 1.8 12.2222 2.205 12.2222 2.7C12.2222 3.195 11.6722 3.6 11 3.6C10.3278 3.6 9.77778 3.195 9.77778 2.7C9.77778 2.205 10.3278 1.8 11 1.8ZM11 5.4C13.0289 5.4 14.6667 6.606 14.6667 8.1C14.6667 9.594 13.0289 10.8 11 10.8C8.97111 10.8 7.33333 9.594 7.33333 8.1C7.33333 6.606 8.97111 5.4 11 5.4ZM18.3333 16.2H3.66667V14.94C3.66667 13.14 8.55556 12.15 11 12.15C13.4444 12.15 18.3333 13.14 18.3333 14.94V16.2Z" fill="#10BBE0"/>
</svg>
