<svg width="24" height="25" viewBox="0 0 24 25" fill="none" xmlns="http://www.w3.org/2000/svg">
<path d="M22.5306 5.66669L12.432 0.223439C11.8817 -0.0731774 11.288 -0.0731774 10.7381 0.223439L0.639169 5.66669C-0.213056 6.12591 -0.213056 8.10314 0.639169 8.56235L2.39973 9.51127C2.01344 10.349 1.77595 11.371 1.75242 12.4901C1.40378 12.8407 1.15832 13.4733 1.15832 14.2285C1.15832 14.9132 1.36396 15.4893 1.6601 15.8577L0.735831 23.1543C0.65546 23.7889 0.930605 24.391 1.30096 24.391H3.33233C3.70305 24.391 3.9782 23.7889 3.89782 23.1543L2.97356 15.8577C3.2697 15.4893 3.47533 14.9132 3.47533 14.2285C3.47533 13.4937 3.2411 12.8788 2.90839 12.5219C2.9359 11.5679 3.21394 10.7244 3.65743 10.1896L10.7377 14.0062C11.0657 14.1828 11.6949 14.4032 12.4317 14.0062L22.5306 8.56299C23.3831 8.10314 23.3831 6.12654 22.5306 5.66669ZM12.772 15.9492C11.7391 16.5056 10.859 16.1981 10.3974 15.9492L5.1472 13.1196L4.63384 20.326C4.63384 22.5713 7.74587 24.391 11.5849 24.391C15.4239 24.391 18.5359 22.5713 18.5359 20.326L18.0225 13.1189L12.772 15.9492Z" fill="#5D7285"/>
</svg>
