<svg width="24" height="25" viewBox="0 0 24 25" fill="none" xmlns="http://www.w3.org/2000/svg">
<path fill-rule="evenodd" clip-rule="evenodd" d="M6.23808 0.000976562C6.73024 0.000976562 7.12923 0.420972 7.12923 0.939053V1.87713H16.0408V0.939053C16.0408 0.420972 16.4398 0.000976562 16.9319 0.000976562C17.424 0.000976562 17.8231 0.420972 17.8231 0.939053V1.87713H20.4965C21.973 1.87713 23.17 3.1371 23.17 4.69136V21.5767C23.17 23.131 21.973 24.391 20.4965 24.391H2.67346C1.19694 24.391 0 23.131 0 21.5767V4.69136C0 3.1371 1.19694 1.87713 2.67346 1.87713H5.34692V0.939053C5.34692 0.420972 5.74591 0.000976562 6.23808 0.000976562ZM16.0408 3.75328V4.69136C16.0408 5.20944 16.4398 5.62944 16.9319 5.62944C17.424 5.62944 17.8231 5.20944 17.8231 4.69136V3.75328H20.4965C20.9886 3.75328 21.3877 4.17328 21.3877 4.69136V7.50559H1.78231V4.69136C1.78231 4.17328 2.1813 3.75328 2.67346 3.75328H5.34692V4.69136C5.34692 5.20944 5.74591 5.62944 6.23808 5.62944C6.73024 5.62944 7.12923 5.20944 7.12923 4.69136V3.75328H16.0408ZM1.78231 9.38175V21.5767C1.78231 22.0948 2.1813 22.5148 2.67346 22.5148H20.4965C20.9886 22.5148 21.3877 22.0948 21.3877 21.5767V9.38175H1.78231ZM10.6938 12.196C10.6938 11.6779 11.0928 11.2579 11.585 11.2579C12.0772 11.2579 12.4762 11.6779 12.4762 12.196C12.4762 12.7141 12.0772 13.1341 11.585 13.1341C11.0928 13.1341 10.6938 12.7141 10.6938 12.196ZM15.1496 11.2579C14.6574 11.2579 14.2585 11.6779 14.2585 12.196C14.2585 12.7141 14.6574 13.1341 15.1496 13.1341C15.6418 13.1341 16.0408 12.7141 16.0408 12.196C16.0408 11.6779 15.6418 11.2579 15.1496 11.2579ZM17.8231 12.196C17.8231 11.6779 18.2221 11.2579 18.7142 11.2579C19.2063 11.2579 19.6054 11.6779 19.6054 12.196C19.6054 12.7141 19.2063 13.1341 18.7142 13.1341C18.2221 13.1341 17.8231 12.7141 17.8231 12.196ZM18.7142 15.0102C18.2221 15.0102 17.8231 15.4302 17.8231 15.9483C17.8231 16.4664 18.2221 16.8864 18.7142 16.8864C19.2063 16.8864 19.6054 16.4664 19.6054 15.9483C19.6054 15.4302 19.2063 15.0102 18.7142 15.0102ZM14.2585 15.9483C14.2585 15.4302 14.6574 15.0102 15.1496 15.0102C15.6418 15.0102 16.0408 15.4302 16.0408 15.9483C16.0408 16.4664 15.6418 16.8864 15.1496 16.8864C14.6574 16.8864 14.2585 16.4664 14.2585 15.9483ZM11.585 15.0102C11.0928 15.0102 10.6938 15.4302 10.6938 15.9483C10.6938 16.4664 11.0928 16.8864 11.585 16.8864C12.0772 16.8864 12.4762 16.4664 12.4762 15.9483C12.4762 15.4302 12.0772 15.0102 11.585 15.0102ZM7.12923 15.9483C7.12923 15.4302 7.52822 15.0102 8.02038 15.0102C8.51255 15.0102 8.91154 15.4302 8.91154 15.9483C8.91154 16.4664 8.51255 16.8864 8.02038 16.8864C7.52822 16.8864 7.12923 16.4664 7.12923 15.9483ZM4.45577 15.0102C3.9636 15.0102 3.56462 15.4302 3.56462 15.9483C3.56462 16.4664 3.9636 16.8864 4.45577 16.8864C4.94794 16.8864 5.34692 16.4664 5.34692 15.9483C5.34692 15.4302 4.94794 15.0102 4.45577 15.0102ZM3.56462 19.7006C3.56462 19.1826 3.9636 18.7625 4.45577 18.7625C4.94794 18.7625 5.34692 19.1826 5.34692 19.7006C5.34692 20.2186 4.94794 20.6387 4.45577 20.6387C3.9636 20.6387 3.56462 20.2186 3.56462 19.7006ZM8.02038 18.7625C7.52822 18.7625 7.12923 19.1826 7.12923 19.7006C7.12923 20.2186 7.52822 20.6387 8.02038 20.6387C8.51255 20.6387 8.91154 20.2186 8.91154 19.7006C8.91154 19.1826 8.51255 18.7625 8.02038 18.7625ZM10.6938 19.7006C10.6938 19.1826 11.0928 18.7625 11.585 18.7625C12.0772 18.7625 12.4762 19.1826 12.4762 19.7006C12.4762 20.2186 12.0772 20.6387 11.585 20.6387C11.0928 20.6387 10.6938 20.2186 10.6938 19.7006ZM15.1496 18.7625C14.6574 18.7625 14.2585 19.1826 14.2585 19.7006C14.2585 20.2186 14.6574 20.6387 15.1496 20.6387C15.6418 20.6387 16.0408 20.2186 16.0408 19.7006C16.0408 19.1826 15.6418 18.7625 15.1496 18.7625Z" fill="#0C7FDA"/>
</svg>
