<svg width="24" height="25" viewBox="0 0 24 25" fill="none" xmlns="http://www.w3.org/2000/svg">
<path opacity="0.45" d="M17.436 0.0570356C16.3598 0.0471001 15.3116 0.347011 14.4631 0.907599C13.7466 1.38652 13.1528 1.98401 12.718 2.6636C12.2897 1.97831 11.7015 1.37374 10.9891 0.886494C10.1506 0.315461 9.10733 0.00319304 8.03118 0.00110497C4.99347 -0.0178903 2.6862 2.07264 2.66252 4.86177C2.63759 7.87463 5.47711 9.95355 9.77752 13.1004C10.508 13.6344 11.3356 14.2401 12.1957 14.886C12.3096 14.9711 12.4563 15.0181 12.6083 15.0181C12.7603 15.0181 12.907 14.9711 13.0209 14.886C13.8935 14.2528 14.7286 13.6545 15.4678 13.1289C19.8205 10.0337 22.6975 7.98965 22.7199 4.9768C22.7461 2.19294 20.4725 0.0770862 17.436 0.0570356Z" fill="#5D7285"/>
<path d="M15.9514 7.6499C15.9514 7.6499 13.1318 9.63913 15.0577 10.8253C16.9835 12.0114 17.952 9.36369 17.952 9.36369L17.5133 7.35864L15.9514 7.6499Z" fill="#5D7285"/>
<path d="M11.6124 9.75C11.6124 9.75 13.4073 10.0782 15.0702 11.4385C16.733 12.7987 10.3459 15.5298 11.6124 9.75Z" fill="#5D7285"/>
<path opacity="0.46" d="M15.0726 11.4341C16.7355 12.7891 10.3459 15.5297 11.6149 9.74561C11.6149 9.74561 13.4098 10.0738 15.0726 11.4341Z" fill="#5D7285"/>
<path d="M15.9514 9.57471L17.9645 9.62958C17.9645 9.62958 24.9013 10.7186 21.1294 16.8056C20.4792 17.8593 20.1244 19.0256 20.0923 20.2141H14.781L14.5491 19.4016C14.2459 18.2869 13.6635 17.2404 12.8414 16.3328C11.7943 15.2078 10.9891 12.9284 15.9514 9.57471Z" fill="#5D7285"/>
<path d="M8.27051 5.37887C8.27051 5.37887 8.49613 6.30331 8.39765 6.93648C8.38799 6.99821 8.36402 7.05771 8.32712 7.11158C8.29022 7.16544 8.24112 7.2126 8.18263 7.25035C8.12414 7.2881 8.05741 7.3157 7.98629 7.33156C7.91516 7.34742 7.84104 7.35123 7.76817 7.34277C7.39422 7.29633 6.89562 7.14015 6.69992 6.65894L6.25243 5.88119C6.25243 5.88119 5.99441 5.38204 6.56406 4.93987C7.1337 4.4977 8.1658 4.81112 8.27051 5.37887Z" fill="#5D7285"/>
<path d="M6.33594 6.02051L6.19135 9.10512L8.20444 9.05025L7.50141 6.82781L6.33594 6.02051Z" fill="#5D7285"/>
<path d="M7.99752 5.44525C7.65791 5.49048 7.31328 5.50252 6.97041 5.48113C7.08742 5.59799 7.16155 5.74124 7.1837 5.89329C7.20584 6.04534 7.17504 6.19955 7.09506 6.33697C7.01957 6.47127 6.89114 6.57908 6.73189 6.64187C6.57264 6.70466 6.39251 6.7185 6.22251 6.68099L6.07293 5.47796C6.04434 5.30645 6.0712 5.13157 6.15066 4.97195C6.23012 4.81233 6.35919 4.67393 6.52416 4.57147C6.66631 4.48185 6.81539 4.40041 6.97041 4.3277C7.35932 4.14724 7.99005 4.3182 8.32411 4.04804C8.35791 4.02119 8.39934 4.00218 8.44437 3.99285C8.4894 3.98353 8.53652 3.98421 8.58115 3.99482C8.62578 4.00544 8.66642 4.02563 8.69913 4.05344C8.73184 4.08125 8.75551 4.11574 8.76786 4.15357C8.88254 4.51237 8.88628 5.09595 8.33034 5.35449C8.22593 5.39979 8.11353 5.43044 7.99752 5.44525Z" fill="#5D7285"/>
<path d="M7.20849 6.30331C7.20849 6.30331 7.14991 5.94346 6.83454 6.00361C6.51918 6.06376 6.6002 6.58296 7.04146 6.58824L7.20849 6.30331Z" fill="#5D7285"/>
<path d="M8.37771 5.9668L8.73545 6.29605C8.75571 6.31472 8.77008 6.33742 8.77724 6.36204C8.7844 6.38667 8.78412 6.41242 8.77642 6.43692C8.76871 6.46143 8.75384 6.48389 8.73318 6.50225C8.71251 6.5206 8.68671 6.53425 8.65817 6.54193L8.24433 6.64746L8.37771 5.9668Z" fill="#5D7285"/>
<path opacity="0.31" d="M7.67967 7.30907C7.42341 7.28103 7.18248 7.19004 6.98662 7.04736C6.98662 7.04736 7.09382 7.60561 7.89905 8.08577L7.67967 7.30907Z" fill="#5D7285"/>
<path d="M15.8854 5.90225C15.8854 5.90225 15.6597 6.82458 15.7607 7.46303C15.7702 7.52481 15.7941 7.58439 15.8309 7.63833C15.8678 7.69226 15.9169 7.73948 15.9754 7.77725C16.0339 7.81503 16.1007 7.84262 16.1719 7.85842C16.2431 7.87422 16.3173 7.87792 16.3902 7.86932C16.7641 7.82288 17.2627 7.6667 17.4584 7.18549L17.9034 6.40141C17.9034 6.40141 18.1615 5.9012 17.5918 5.46009C17.0222 5.01898 15.9901 5.33451 15.8854 5.90225Z" fill="#5D7285"/>
<path d="M17.8199 6.54395L17.9645 9.62856L15.9514 9.57368L16.6544 7.35124L17.8199 6.54395Z" fill="#5D7285"/>
<path d="M16.9474 6.82034C16.9474 6.82034 17.006 6.46154 17.3213 6.52169C17.6367 6.58184 17.5557 7.10105 17.1144 7.10527L16.9474 6.82034Z" fill="#5D7285"/>
<path d="M15.7782 6.48901L15.4204 6.81932C15.4002 6.838 15.3858 6.86069 15.3786 6.88532C15.3715 6.90994 15.3717 6.93569 15.3794 6.96019C15.3871 6.9847 15.402 7.00716 15.4227 7.02552C15.4434 7.04387 15.4691 7.05752 15.4977 7.0652L15.9115 7.17073L15.7782 6.48901Z" fill="#5D7285"/>
<path opacity="0.31" d="M16.4737 7.83227C16.7296 7.80432 16.9702 7.71331 17.1655 7.57056C17.1655 7.57056 17.0596 8.1288 16.2543 8.60896L16.4737 7.83227Z" fill="#5D7285"/>
<path d="M16.0274 4.50934C15.3631 4.80165 15.2945 5.57835 15.8579 5.99519C16.0795 6.15336 16.3262 6.28443 16.5909 6.38459C17.6978 6.8162 15.8604 11.0279 18.4868 10.9297C21.1132 10.8316 20.5871 9.76785 19.7146 8.7305C18.842 7.69315 18.8084 6.09227 18.604 5.24804C18.4556 4.63808 16.9324 4.10938 16.0274 4.50934Z" fill="#5D7285"/>
<path d="M6.19136 9.10494L8.20445 9.05112C8.20445 9.05112 18.8583 8.67544 11.297 20.6076H4.13339C4.13339 20.6076 -2.21626 10.4072 6.19136 9.10494Z" fill="#5D7285"/>
<path opacity="0.08" d="M5.55936 11.4341C5.55936 11.4341 6.56653 12.7405 5.86725 14.8954C5.16796 17.0503 4.90371 18.8781 6.39202 20.6077H4.13337C4.13337 20.6077 2.95792 18.5436 2.86693 18.075C2.77594 17.6065 1.10937 12.6846 5.55936 11.4341Z" fill="#5D7285"/>
<path d="M2.49299 10.6597C1.26893 11.581 0.153319 13.0668 0 15.4402L4.13338 16.2126C4.75102 14.8875 5.21726 13.5153 5.52572 12.1149C5.85604 10.6534 3.8068 9.66983 2.49299 10.6597Z" fill="#5D7285"/>
<path opacity="0.46" d="M2.49299 10.6597C1.26893 11.581 0.153319 13.0668 0 15.4402L4.13338 16.2126C4.75102 14.8875 5.21726 13.5153 5.52572 12.1149C5.85604 10.6534 3.8068 9.66983 2.49299 10.6597Z" fill="#5D7285"/>
<path d="M0.422556 15.52C0.422556 15.52 -0.396393 21.8665 0.422556 24.3845H1.83359C1.83359 24.3845 1.94079 18.9803 3.86787 16.1616L0.422556 15.52Z" fill="#5D7285"/>
<path d="M4.13089 20.6079L3.69337 24.3869H11.6149L11.297 20.6079H4.13089Z" fill="#5D7285"/>
<path d="M14.6488 19.752H20.1222L20.8801 24.3868H13.4111L14.6488 19.752Z" fill="#5D7285"/>
<path opacity="0.08" d="M11.8816 13.8665C11.8816 13.8665 10.8059 13.7484 10.8495 14.5652C10.8931 15.3819 12.1184 16.8868 11.0465 17.4387C10.0331 17.9664 6.81585 19.2327 7.40045 21.3063C7.46357 21.5243 7.58753 21.7262 7.76194 21.8952L8.50111 22.6202C8.74193 22.8569 8.89353 23.1493 8.93641 23.4596C8.97928 23.7699 8.91146 24.084 8.74168 24.3614L8.72672 24.3867H11.8816L12.556 21.108L12.8651 16.7053L11.8816 13.8665Z" fill="#5D7285"/>
<path opacity="0.08" d="M19.6136 12.0525C19.6136 12.0525 17.2453 13.2439 17.5133 15.9433C17.7813 18.6428 16.2568 19.0723 16.2568 19.0723L16.713 19.9587C16.713 19.9587 19.5376 22.2065 18.1365 24.3909H20.8788L20.2356 20.4579L21.6068 15.9476L19.6136 12.0525Z" fill="#5D7285"/>
<path d="M12.0387 14.5652C12.0387 14.5652 11.4316 16.7623 12.6021 16.7813C13.7725 16.8003 13.4746 14.5652 13.4746 14.5652H12.0387Z" fill="#5D7285"/>
<path d="M11.5924 14.7085C11.5924 14.7085 11.4678 15.1465 12.2082 15.1887C12.6402 15.2138 13.0738 15.2138 13.5058 15.1887C13.5058 15.1887 14.3995 14.9386 13.9072 14.2505C13.4148 13.5625 13.3824 14.3339 12.8202 13.7493C12.258 13.1646 11.752 13.6079 11.8816 14.0332C12.0112 14.4584 11.2771 14.1387 11.5924 14.7085Z" fill="#5D7285"/>
<path d="M13.2739 16.3696L13.5058 17.7742C13.5058 17.7742 13.9321 18.3578 13.0446 18.4834C12.1571 18.609 11.838 18.2955 12.4051 17.7953L12.5522 16.3696H13.2739Z" fill="#5D7285"/>
<path d="M19.3406 12.5676C19.7507 11.1715 22.0593 11.0237 22.7062 12.3566C23.0727 13.1132 23.2846 14.082 23.1051 15.2913C22.8818 16.903 22.2158 18.4481 21.1605 19.8027C20.9174 20.1092 20.5474 20.3275 20.1236 20.4146C19.6998 20.5017 19.2528 20.4513 18.8707 20.2734L14.0767 18.0573L14.3646 17.1075L19.3681 18.5047C19.3681 18.5047 18.4743 15.5066 19.3406 12.5676Z" fill="#5D7285"/>
<path opacity="0.46" d="M19.3406 12.5676C19.7507 11.1715 22.0593 11.0237 22.7062 12.3566C23.0727 13.1132 23.2846 14.082 23.1051 15.2913C22.8818 16.903 22.2158 18.4481 21.1605 19.8027C20.9174 20.1092 20.5474 20.3275 20.1236 20.4146C19.6998 20.5017 19.2528 20.4513 18.8707 20.2734L14.0767 18.0573L14.3646 17.1075L19.3681 18.5047C19.3681 18.5047 18.4743 15.5066 19.3406 12.5676Z" fill="#5D7285"/>
<path d="M13.5058 15.1887C13.5058 15.1887 14.129 15.1961 14.0555 15.672C13.982 16.148 13.2665 15.672 13.2665 15.672L13.5058 15.1887Z" fill="#5D7285"/>
<path d="M11.1487 18.1298C10.422 18.4148 9.33128 18.9741 8.80152 19.9238C8.64998 20.1967 8.59718 20.5014 8.64975 20.7996C8.70232 21.0978 8.85791 21.3761 9.09694 21.5996L10.5279 22.942C10.5279 22.942 10.3758 23.6089 10.8134 23.6648C11.2509 23.7208 11.1138 22.6602 11.1138 22.6602L10.0792 21.2672C10.0383 21.2128 10.0122 21.1513 10.0027 21.0873C9.9933 21.0233 10.0008 20.9582 10.0246 20.897C10.0485 20.8357 10.0881 20.7796 10.1407 20.7329C10.1932 20.6862 10.2574 20.6499 10.3285 20.6267C11.0539 20.3924 12.1421 19.8278 12.0187 18.5636C12.0094 18.4805 11.977 18.4005 11.9241 18.3301C11.8712 18.2598 11.7994 18.201 11.7145 18.1587C11.6296 18.1163 11.534 18.0917 11.4357 18.0866C11.3373 18.0816 11.239 18.0964 11.1487 18.1298Z" fill="#5D7285"/>
<path d="M10.8109 22.4568L10.5204 24.3869H15.4777L14.9692 22.6256L10.8109 22.4568Z" fill="#5D7285"/>
<path opacity="0.31" d="M12.5098 16.7835C12.5098 16.7835 12.8177 16.7951 13.2253 16.5112C13.2253 16.5112 13.2116 17.0526 12.4675 17.1898L12.5098 16.7835Z" fill="#5D7285"/>
<path d="M13.5058 17.7745C13.5058 17.7745 15.3917 17.7428 15.5637 19.3131C15.7358 20.8833 14.9692 22.6256 14.9692 22.6256L10.8109 22.4568C10.8109 22.4568 8.83391 18.2282 12.4051 17.7956L13.5058 17.7745Z" fill="#5D7285"/>
<path opacity="0.08" d="M13.6653 18.6438C13.6653 18.6438 13.5045 19.4279 13.8486 20.1212C14.1487 20.7531 14.2084 21.4485 14.0193 22.1104L13.881 22.6286L13.4111 24.3899H15.4765L15.1375 23.3346L15.3369 21.5195C15.3369 21.5195 15.5588 20.7027 15.5338 20.5549C15.5089 20.4072 13.6653 18.6438 13.6653 18.6438Z" fill="#5D7285"/>
<path d="M14.5516 18.0001C15.1911 18.2512 16.1135 18.7176 16.6856 19.469C16.9299 19.7926 17.0416 20.1752 17.0032 20.5579C16.9649 20.9405 16.7788 21.3018 16.4737 21.5859L15.1674 22.8101C15.1674 22.8101 15.3207 23.477 14.8832 23.5329C14.4457 23.5889 14.5765 22.5325 14.5765 22.5325L15.555 21.2176C15.602 21.1544 15.6321 21.0832 15.6432 21.0091C15.6543 20.935 15.6462 20.8598 15.6193 20.7886C15.5925 20.7175 15.5476 20.6521 15.4879 20.5972C15.4281 20.5422 15.3549 20.499 15.2733 20.4705C14.5516 20.2204 13.5507 19.6516 13.6691 18.4359C13.6773 18.3513 13.7095 18.2696 13.763 18.1977C13.8164 18.1259 13.8896 18.0661 13.9762 18.0233C14.0628 17.9805 14.1604 17.9561 14.2605 17.952C14.3607 17.948 14.4606 17.9644 14.5516 18.0001Z" fill="#5D7285"/>
<path d="M14.2948 17.3142C14.2948 17.3142 13.679 16.8646 13.2665 17.0873C12.8539 17.31 12.88 17.6962 13.5058 17.7743L14.129 17.8524L14.2948 17.3142Z" fill="#5D7285"/>
<path d="M20.8801 10.9297C20.8801 10.9297 23.1238 11.4858 22.2512 12.3385C21.3787 13.1912 20.2132 11.5597 20.8801 10.9297Z" fill="#5D7285"/>
</svg>
