<svg width="21" height="22" viewBox="0 0 21 22" fill="none" xmlns="http://www.w3.org/2000/svg">
<path d="M18.1227 7.33333H16.8906V5.2381C16.8906 2.34667 14.1307 0 10.7301 0C7.3295 0 4.56959 2.34667 4.56959 5.2381V7.33333H3.33749C1.98218 7.33333 0.873291 8.27619 0.873291 9.42857V19.9048C0.873291 21.0571 1.98218 22 3.33749 22H18.1227C19.478 22 20.5869 21.0571 20.5869 19.9048V9.42857C20.5869 8.27619 19.478 7.33333 18.1227 7.33333ZM10.7301 16.7619C9.37479 16.7619 8.2659 15.819 8.2659 14.6667C8.2659 13.5143 9.37479 12.5714 10.7301 12.5714C12.0854 12.5714 13.1943 13.5143 13.1943 14.6667C13.1943 15.819 12.0854 16.7619 10.7301 16.7619ZM14.5496 7.33333H6.91059V5.2381C6.91059 3.44667 8.62321 1.99048 10.7301 1.99048C12.837 1.99048 14.5496 3.44667 14.5496 5.2381V7.33333Z" fill="#F42C10"/>
</svg>
