<svg width="24" height="25" viewBox="0 0 24 25" fill="none" xmlns="http://www.w3.org/2000/svg">
<path d="M7.24063 13.7202H13.0331V15.2446H7.24063V13.7202Z" fill="#5D7285"/>
<path d="M7.24063 9.90942H15.9294V11.4338H7.24063V9.90942Z" fill="#5D7285"/>
<path d="M7.24063 17.5312H10.8609V19.0556H7.24063V17.5312Z" fill="#5D7285"/>
<path d="M18.1016 3.81195H15.9294V3.04977C15.9294 2.64548 15.7768 2.25775 15.5052 1.97187C15.2337 1.68599 14.8653 1.52539 14.4813 1.52539H8.68875C8.30469 1.52539 7.93635 1.68599 7.66477 1.97187C7.3932 2.25775 7.24063 2.64548 7.24063 3.04977V3.81195H5.06844C4.68437 3.81195 4.31604 3.97256 4.04446 4.25843C3.77289 4.54431 3.62032 4.93204 3.62032 5.33633V21.3423C3.62032 21.7466 3.77289 22.1343 4.04446 22.4202C4.31604 22.706 4.68437 22.8666 5.06844 22.8666H18.1016C18.4856 22.8666 18.854 22.706 19.1255 22.4202C19.3971 22.1343 19.5497 21.7466 19.5497 21.3423V5.33633C19.5497 4.93204 19.3971 4.54431 19.1255 4.25843C18.854 3.97256 18.4856 3.81195 18.1016 3.81195ZM8.68875 3.04977H14.4813V6.09852H8.68875V3.04977ZM18.1016 21.3423H5.06844V5.33633H7.24063V7.62289H15.9294V5.33633H18.1016V21.3423Z" fill="#5D7285"/>
</svg>
