<svg width="14" height="14" viewBox="0 0 14 14" fill="none" xmlns="http://www.w3.org/2000/svg">
<path d="M8.31475 11.099C8.44288 11.2272 8.44288 11.4349 8.31475 11.5631L7.0932 12.7846C5.47274 14.4051 2.83599 14.4052 1.21539 12.7846C-0.405102 11.1641 -0.405102 8.52732 1.21539 6.90682L2.43697 5.68524C2.5651 5.55711 2.77285 5.55711 2.90101 5.68524L3.98377 6.768C4.1119 6.89613 4.1119 7.10389 3.98377 7.23205L2.76219 8.4536C1.9946 9.22122 1.9946 10.4702 2.76219 11.2378C3.52978 12.0054 4.77878 12.0054 5.54643 11.2378L6.76797 10.0163C6.89611 9.88813 7.10386 9.88813 7.23202 10.0163L8.31475 11.099ZM6.76797 3.98375C6.89611 4.11189 7.10386 4.11189 7.23202 3.98375L8.45357 2.7622C9.22116 1.99453 10.4702 1.99458 11.2378 2.7622C12.0054 3.52982 12.0054 4.7788 11.2378 5.54642L10.0162 6.76797C9.8881 6.8961 9.8881 7.10386 10.0162 7.23202L11.099 8.31478C11.2271 8.44291 11.4349 8.44291 11.563 8.31478L12.7846 7.0932C14.4051 5.47267 14.4051 2.83592 12.7846 1.21539C11.1641 -0.405104 8.52734 -0.405104 6.9068 1.21539L5.68525 2.43695C5.55712 2.56508 5.55712 2.77284 5.68525 2.901L6.76797 3.98375ZM13.189 13.8078L13.8077 13.1891C14.064 12.9328 14.064 12.5173 13.8077 12.261L1.73902 0.192219C1.48273 -0.0640731 1.06721 -0.0640731 0.81095 0.192219L0.192219 0.810953C-0.0640729 1.06725 -0.0640729 1.48276 0.192219 1.73903L12.261 13.8078C12.5172 14.0641 12.9328 14.0641 13.189 13.8078Z" fill="white"/>
</svg>
