<svg width="19" height="19" viewBox="0 0 19 19" fill="none" xmlns="http://www.w3.org/2000/svg">
<path d="M9.5 0C4.256 0 0 4.256 0 9.5C0 14.744 4.256 19 9.5 19C14.744 19 19 14.744 19 9.5C19 4.256 14.744 0 9.5 0ZM9.5 3.8C11.3335 3.8 12.825 5.2915 12.825 7.125C12.825 8.9585 11.3335 10.45 9.5 10.45C7.6665 10.45 6.175 8.9585 6.175 7.125C6.175 5.2915 7.6665 3.8 9.5 3.8ZM9.5 17.1C7.5715 17.1 5.2915 16.321 3.667 14.364C5.2725 13.11 7.296 12.35 9.5 12.35C11.704 12.35 13.7275 13.11 15.333 14.364C13.7085 16.321 11.4285 17.1 9.5 17.1Z" fill="#0C7FDA"/>
</svg>
