<svg width="24" height="13" viewBox="0 0 24 13" fill="none" xmlns="http://www.w3.org/2000/svg">
<path d="M1.09091 10.8333H22.9091V13H1.09091V10.8333ZM2.34545 6.44583L3.27273 4.8425L4.2 6.44583L5.61818 5.63333L4.69091 4.03H6.54545V2.405H4.69091L5.61818 0.8125L4.2 0L3.27273 1.5925L2.34545 0L0.927273 0.8125L1.85455 2.405H0V4.03H1.85455L0.927273 5.63333L2.34545 6.44583ZM9.65455 5.63333L11.0727 6.44583L12 4.8425L12.9273 6.44583L14.3455 5.63333L13.4182 4.03H15.2727V2.405H13.4182L14.3455 0.8125L12.9273 0L12 1.5925L11.0727 0L9.65455 0.8125L10.5818 2.405H8.72727V4.03H10.5818L9.65455 5.63333ZM24 2.405H22.1455L23.0727 0.8125L21.6545 0L20.7273 1.5925L19.8 0L18.3818 0.8125L19.3091 2.405H17.4545V4.03H19.3091L18.3818 5.63333L19.8 6.44583L20.7273 4.8425L21.6545 6.44583L23.0727 5.63333L22.1455 4.03H24V2.405Z" fill="black"/>
</svg>
