<svg width="25" height="18" viewBox="0 0 25 18" fill="none" xmlns="http://www.w3.org/2000/svg">
<path d="M23.8477 12.0791C23.9492 11.5283 23.9492 10.9658 23.8477 10.415L24.8555 9.83301C24.9727 9.7666 25.0234 9.62988 24.9844 9.50098C24.7227 8.65723 24.2734 7.8916 23.6875 7.25879C23.5977 7.16113 23.4531 7.1377 23.3359 7.2041L22.3281 7.78613C21.9023 7.42285 21.4141 7.1416 20.8867 6.9541V5.79004C20.8867 5.65723 20.793 5.54004 20.6641 5.5127C19.793 5.31738 18.9062 5.3252 18.0781 5.5127C17.9492 5.54004 17.8555 5.65723 17.8555 5.79004V6.9541C17.3281 7.1416 16.8398 7.42285 16.4141 7.78613L15.4062 7.2041C15.293 7.1377 15.1445 7.16113 15.0547 7.25879C14.4688 7.8916 14.0195 8.65723 13.7578 9.50098C13.7188 9.62988 13.7734 9.7666 13.8867 9.83301L14.8945 10.415C14.793 10.9658 14.793 11.5283 14.8945 12.0791L13.8867 12.6611C13.7695 12.7275 13.7188 12.8643 13.7578 12.9932C14.0195 13.8369 14.4688 14.5986 15.0547 15.2354C15.1445 15.333 15.2891 15.3564 15.4062 15.29L16.4141 14.708C16.8398 15.0713 17.3281 15.3525 17.8555 15.54V16.7041C17.8555 16.8369 17.9492 16.9541 18.0781 16.9814C18.9492 17.1768 19.8359 17.1689 20.6641 16.9814C20.793 16.9541 20.8867 16.8369 20.8867 16.7041V15.54C21.4141 15.3525 21.9023 15.0713 22.3281 14.708L23.3359 15.29C23.4492 15.3564 23.5977 15.333 23.6875 15.2354C24.2734 14.6025 24.7227 13.8369 24.9844 12.9932C25.0234 12.8643 24.9688 12.7275 24.8555 12.6611L23.8477 12.0791ZM19.375 13.1416C18.3281 13.1416 17.4805 12.29 17.4805 11.2471C17.4805 10.2041 18.332 9.35254 19.375 9.35254C20.418 9.35254 21.2695 10.2041 21.2695 11.2471C21.2695 12.29 20.4219 13.1416 19.375 13.1416ZM3.75 7.49707C5.12891 7.49707 6.25 6.37598 6.25 4.99707C6.25 3.61816 5.12891 2.49707 3.75 2.49707C2.37109 2.49707 1.25 3.61816 1.25 4.99707C1.25 6.37598 2.37109 7.49707 3.75 7.49707ZM12.5 8.74707C12.5742 8.74707 12.6445 8.72754 12.7188 8.72363C13.043 7.87598 13.5195 7.0791 14.1367 6.41113C14.4258 6.09863 14.8359 5.91895 15.2656 5.91895C15.5352 5.91895 15.8008 5.98926 16.0312 6.12598L16.3398 6.30566C16.3711 6.28613 16.4023 6.27051 16.4336 6.25098C16.707 5.68066 16.8711 5.04785 16.8711 4.37598C16.8711 1.95801 14.9141 0.000976562 12.4961 0.000976562C10.0781 0.000976562 8.125 1.9541 8.125 4.37207C8.125 6.79004 10.082 8.74707 12.5 8.74707ZM16.6094 16.3447C16.5195 16.2979 16.4297 16.2432 16.3438 16.1924C16.0234 16.3799 15.7461 16.5752 15.2695 16.5752C14.8438 16.5752 14.4336 16.3955 14.1406 16.083C13.4258 15.3096 12.8789 14.3682 12.5703 13.3643C12.1523 12.0166 13.543 11.4229 13.5781 11.3994C13.5742 11.2979 13.5742 11.1963 13.5781 11.0947L13.2695 10.915C13.1211 10.8291 12.9961 10.7197 12.8867 10.5986C12.7578 10.6064 12.6328 10.6221 12.5039 10.6221C11.543 10.6221 10.6445 10.3877 9.82812 9.99707H9.50391C7.01562 9.99707 5 12.0127 5 14.4971V15.6221C5 16.6572 5.83984 17.4971 6.875 17.4971H16.8516C16.707 17.2627 16.6094 16.9971 16.6094 16.7041V16.3447ZM6.76172 9.47363C6.30859 9.02441 5.6875 8.74707 5 8.74707H2.5C1.12109 8.74707 0 9.86816 0 11.2471V12.4971C0 13.1885 0.558594 13.7471 1.25 13.7471H3.82422C4.07031 11.8955 5.1875 10.3369 6.76172 9.47363Z" fill="#5D7285"/>
</svg>
