<svg width="24" height="25" viewBox="0 0 24 25" fill="none" xmlns="http://www.w3.org/2000/svg">
<path d="M17.5472 16.6345C18.3723 16.0981 19.456 16.6833 19.456 17.6585V19.2312C19.456 20.7794 18.2368 22.4374 16.7714 22.925L12.843 24.2173C12.1534 24.4489 11.0328 24.4489 10.3555 24.2173L6.42708 22.925C4.94933 22.4374 3.74249 20.7794 3.74249 19.2312V17.6463C3.74249 16.6833 4.82618 16.0981 5.63895 16.6223L8.17576 18.2559C9.14863 18.902 10.3801 19.219 11.6116 19.219C12.843 19.219 14.0745 18.902 15.0473 18.2559L17.5472 16.6345Z" fill="#5D7285"/>
<path d="M21.4243 5.4412L14.0479 0.650146C12.7179 -0.215413 10.5259 -0.215413 9.19591 0.650146L1.78254 5.4412C-0.594181 6.96507 -0.594181 10.4151 1.78254 11.9512L3.75288 13.219L9.19591 16.73C10.5259 17.5956 12.7179 17.5956 14.0479 16.73L19.454 13.219L21.1411 12.1219V15.8523C21.1411 16.3521 21.5598 16.7666 22.0647 16.7666C22.5696 16.7666 22.9883 16.3521 22.9883 15.8523V9.85434C23.4809 8.28169 22.976 6.45305 21.4243 5.4412Z" fill="#5D7285"/>
</svg>
