<svg width="28" height="24" viewBox="0 0 28 24" fill="none" xmlns="http://www.w3.org/2000/svg">
<path d="M20.598 7.98757C20.598 6.39698 19.9019 4.87153 18.6628 3.74681C17.4238 2.62209 15.7433 1.99023 13.991 1.99023C12.2387 1.99023 10.5582 2.62209 9.31911 3.74681C8.08005 4.87153 7.38395 6.39698 7.38395 7.98757C7.38395 14.9845 4.08044 16.9836 4.08044 16.9836H23.9015C23.9015 16.9836 20.598 14.9845 20.598 7.98757Z" stroke="#0078FF" stroke-width="2" stroke-linecap="round" stroke-linejoin="round"/>
<path d="M15.896 20.9819C15.7024 21.2846 15.4245 21.5358 15.0902 21.7105C14.7558 21.8851 14.3768 21.9771 13.991 21.9771C13.6051 21.9771 13.2261 21.8851 12.8917 21.7105C12.5574 21.5358 12.2795 21.2846 12.0859 20.9819" stroke="#0078FF" stroke-width="2" stroke-linecap="round" stroke-linejoin="round"/>
</svg>
