<svg width="21" height="21" viewBox="0 0 21 21" fill="none" xmlns="http://www.w3.org/2000/svg">
<path d="M7.56988 10.7421C7.70244 11.3162 7.07264 11.7525 6.58271 11.4463L4.9119 10.4022L2.82556 13.741C2.2807 14.6128 2.91046 15.75 3.93798 15.75H6.0703C6.34211 15.75 6.56249 15.9704 6.56249 16.2422V17.8828C6.56249 18.1546 6.34211 18.375 6.0703 18.375H3.94221C0.852333 18.375 -1.03307 14.9687 0.603204 12.3506L2.6877 9.01245L1.01734 7.96868C0.521829 7.65914 0.649593 6.90388 1.21745 6.77275L5.7389 5.72891C6.09208 5.64737 6.44441 5.86758 6.52595 6.22068L7.56988 10.7421ZM11.6124 3.23976L13.3059 5.9499L11.6349 6.99403C11.1407 7.3028 11.2658 8.05851 11.8351 8.18996L16.3565 9.23381C16.7122 9.3158 17.0626 9.0928 17.1435 8.74203L18.1874 4.2206C18.3185 3.65278 17.6956 3.20674 17.2002 3.51645L15.5314 4.55923L13.839 1.84884C12.3 -0.613448 8.70347 -0.619108 7.16099 1.84884L6.42423 3.02869C6.28026 3.2592 6.3504 3.56275 6.58091 3.7068L7.97212 4.57613C8.20263 4.72017 8.50631 4.65008 8.65035 4.41957L9.38703 3.24066C9.90843 2.40636 11.1086 2.43364 11.6124 3.23976ZM20.3966 12.3506L19.268 10.5433C19.124 10.3126 18.8203 10.2425 18.5897 10.3865L17.2009 11.2544C16.9704 11.3984 16.9002 11.7021 17.0443 11.9326L18.1748 13.7419C18.7186 14.6119 18.0905 15.75 17.0618 15.75H13.125V13.7821C13.125 13.1991 12.4178 12.905 12.0047 13.3181L8.72348 16.5985C8.46718 16.8548 8.46718 17.2703 8.72348 17.5266L12.0047 20.8074C12.415 21.2177 13.125 20.9303 13.125 20.3433V18.375H17.0576C20.145 18.375 22.0342 14.9708 20.3966 12.3506Z" fill="white"/>
</svg>
