<svg width="13" height="14" viewBox="0 0 13 14" fill="none" xmlns="http://www.w3.org/2000/svg">
<path d="M12.9046 10.896L6.73062 13.9529C6.6578 13.984 6.57939 14 6.50016 14C6.42092 14 6.34251 13.984 6.26969 13.9529L0.0954369 10.896C-0.0302413 10.8335 -0.0302413 10.731 0.0954369 10.6682L1.57404 9.93758C1.64697 9.9065 1.72548 9.89048 1.80482 9.89048C1.88416 9.89048 1.96267 9.9065 2.03559 9.93758L6.26969 12.0313C6.34247 12.0626 6.42089 12.0787 6.50016 12.0787C6.57942 12.0787 6.65785 12.0626 6.73062 12.0313L10.9647 9.93758C11.0376 9.9065 11.116 9.89046 11.1953 9.89046C11.2746 9.89046 11.3531 9.9065 11.426 9.93758L12.9046 10.6698C13.0318 10.731 13.0318 10.8335 12.9046 10.896ZM12.9046 6.62946L11.426 5.89727C11.3531 5.86618 11.2746 5.85015 11.1953 5.85015C11.116 5.85015 11.0376 5.86618 10.9647 5.89727L6.73062 7.99352C6.65777 8.02446 6.57937 8.04041 6.50016 8.04041C6.42094 8.04041 6.34255 8.02446 6.26969 7.99352L2.03559 5.89727C1.96267 5.86619 1.88416 5.85017 1.80482 5.85017C1.72548 5.85017 1.64697 5.86619 1.57404 5.89727L0.0954369 6.62946C-0.0302413 6.69196 -0.0302413 6.79477 0.0954369 6.85789L6.26969 9.91414C6.34251 9.94522 6.42092 9.96125 6.50016 9.96125C6.57939 9.96125 6.6578 9.94522 6.73062 9.91414L12.9046 6.85789C13.0318 6.79477 13.0318 6.69227 12.9046 6.62946ZM0.0954369 3.07571L6.26938 5.89727C6.41752 5.95509 6.58216 5.95509 6.73031 5.89727L12.9046 3.07571C13.0302 3.01758 13.0302 2.9229 12.9046 2.86508L6.73031 0.0438331C6.58228 -0.014611 6.4174 -0.014611 6.26938 0.0438331L0.0954369 2.86508C-0.0318123 2.9229 -0.0318123 3.01758 0.0954369 3.07571Z" fill="black"/>
</svg>
