<svg width="24" height="17" viewBox="0 0 24 17" fill="none" xmlns="http://www.w3.org/2000/svg">
<path d="M2.317 0.000976562H20.853C21.4675 0.000976563 22.0568 0.215114 22.4914 0.596282C22.9259 0.97745 23.17 1.49442 23.17 2.03348V14.2285C23.17 14.7675 22.9259 15.2845 22.4914 15.6657C22.0568 16.0468 21.4675 16.261 20.853 16.261H2.317C1.70249 16.261 1.11316 16.0468 0.678633 15.6657C0.244112 15.2845 0 14.7675 0 14.2285V2.03348C0 1.49442 0.244112 0.97745 0.678633 0.596282C1.11316 0.215114 1.70249 0.000976563 2.317 0.000976562ZM2.317 2.03348V14.2285H10.4265V2.03348H2.317ZM20.853 14.2285V2.03348H19.4165C19.6945 2.58225 19.6366 3.12086 19.6366 3.18184C19.5555 3.86273 19.011 4.5741 18.814 4.82816L16.1147 7.4196L19.961 7.39928L19.9725 8.6391L13.9483 8.60861L13.902 7.59236C13.902 7.59236 17.4354 4.30988 17.6092 4.01516C17.7714 3.73061 18.4317 2.03348 16.7983 2.03348C15.3733 2.08429 15.5355 3.3546 15.5355 3.3546L13.7514 3.36476C13.7514 3.36476 13.763 2.69404 14.1916 2.03348H12.7435V14.2285H15.7324L15.7208 13.3545L16.8446 13.3443C16.8446 13.3443 17.8988 13.1817 17.9104 12.2773C17.9567 11.261 16.972 11.261 16.7983 11.261C16.6476 11.261 15.5587 11.3118 15.5587 12.1452H13.7977C13.7977 12.1452 13.8441 10.0517 16.7983 10.0517C19.8103 10.0517 19.6482 12.1045 19.6482 12.1045C19.6482 12.1045 19.6945 13.3748 18.3622 13.8525L18.9646 14.2285H20.853ZM8.01682 12.196H6.27907V6.30173L4.19377 6.87083V5.62084L7.83146 4.48264H8.01682V12.196Z" fill="#5D7285"/>
</svg>
