<svg width="24" height="25" viewBox="0 0 24 25" fill="none" xmlns="http://www.w3.org/2000/svg">
<path d="M9.44308 7.22227C9.44308 3.23406 12.516 0.000976562 16.3066 0.000976562C17.1794 0.000976562 18.0164 0.172915 18.7868 0.487168C19.0573 0.597455 19.2563 0.844026 19.3162 1.14257C19.3759 1.44114 19.2884 1.75129 19.0833 1.96704L15.8043 5.41716L18.0228 7.75126L21.3016 4.30138C21.5067 4.08559 21.8014 3.99345 22.0852 4.0564C22.369 4.11937 22.6033 4.32891 22.7081 4.61345C23.0067 5.4238 23.17 6.30404 23.17 7.22227C23.17 11.2105 20.0971 14.4436 16.3066 14.4436C15.6544 14.4436 15.0223 14.3476 14.4229 14.168L5.83254 23.3243C4.60751 24.6301 2.64321 24.7521 1.28075 23.6068C-0.287745 22.2886 -0.438534 19.8364 0.95541 18.3165L9.62193 8.86621C9.50485 8.33743 9.44308 7.78695 9.44308 7.22227ZM16.3066 1.8063C13.4636 1.8063 11.1589 4.23112 11.1589 7.22227C11.1589 7.79181 11.2422 8.33918 11.396 8.85256C11.4905 9.16806 11.4135 9.51266 11.1952 9.75069L2.19019 19.5699C1.49817 20.3246 1.57303 21.5419 2.35171 22.1963C3.02808 22.7648 4.00325 22.7044 4.6114 22.0561L13.5754 12.5016C13.8136 12.2476 14.1717 12.1652 14.4889 12.2912C15.053 12.5152 15.665 12.6382 16.3066 12.6382C19.1494 12.6382 21.4541 10.2134 21.4541 7.22227C21.4541 7.05184 21.4466 6.88337 21.432 6.71719L18.6293 9.6661C18.4686 9.83538 18.2503 9.93048 18.0228 9.93048C17.7953 9.93048 17.577 9.83538 17.416 9.6661L13.9844 6.05545C13.6493 5.70294 13.6493 5.13143 13.9844 4.77891L16.7875 1.82957C16.6292 1.81417 16.4687 1.8063 16.3066 1.8063Z" fill="#5D7285"/>
</svg>
