<svg width="24" height="25" viewBox="0 0 24 25" fill="none" xmlns="http://www.w3.org/2000/svg">
<path d="M18.8256 3.04977H15.9294V1.52539H14.4812V3.04977H8.68875V1.52539H7.24062V3.04977H4.34437C3.96045 3.05027 3.5924 3.21104 3.32092 3.4968C3.04945 3.78257 2.89673 4.17001 2.89625 4.57414V19.8179C2.89673 20.222 3.04945 20.6095 3.32092 20.8952C3.5924 21.181 3.96045 21.3418 4.34437 21.3423H18.8256C19.2095 21.3418 19.5776 21.181 19.8491 20.8952C20.1205 20.6095 20.2733 20.222 20.2737 19.8179V4.57414C20.2733 4.17001 20.1205 3.78257 19.8491 3.4968C19.5776 3.21104 19.2095 3.05027 18.8256 3.04977ZM4.34437 4.57414H7.24062V6.09852H8.68875V4.57414H14.4812V6.09852H15.9294V4.57414H18.8256V7.62289H4.34437V4.57414ZM4.34437 9.14727H7.96469V13.7204H4.34437V9.14727ZM13.7572 19.8179H9.41281V15.2448H13.7572V19.8179ZM13.7572 13.7204H9.41281V9.14727H13.7572V13.7204ZM15.2053 19.8179V15.2448H18.8256L18.8265 19.8179H15.2053Z" fill="#5D7285"/>
</svg>
