<svg width="23" height="20" viewBox="0 0 23 20" fill="none" xmlns="http://www.w3.org/2000/svg">
<path d="M7.31383 0.990967H4.01032C3.42623 0.990967 2.86605 1.20159 2.45303 1.57649C2.04001 1.9514 1.80798 2.45988 1.80798 2.99008V5.98875M21.629 5.98875V2.99008C21.629 2.45988 21.397 1.9514 20.984 1.57649C20.571 1.20159 20.0108 0.990967 19.4267 0.990967H16.1232M16.1232 18.983H19.4267C20.0108 18.983 20.571 18.7724 20.984 18.3975C21.397 18.0225 21.629 17.5141 21.629 16.9839V13.9852M1.80798 13.9852V16.9839C1.80798 17.5141 2.04001 18.0225 2.45303 18.3975C2.86605 18.7724 3.42623 18.983 4.01032 18.983H7.31383" stroke="#0078FF" stroke-width="2" stroke-linecap="round" stroke-linejoin="round"/>
</svg>
