<svg width="27" height="24" viewBox="0 0 27 24" fill="none" xmlns="http://www.w3.org/2000/svg">
<path d="M13.1397 14.9849C14.9642 14.9849 16.4432 13.6423 16.4432 11.9862C16.4432 10.3301 14.9642 8.98755 13.1397 8.98755C11.3152 8.98755 9.83618 10.3301 9.83618 11.9862C9.83618 13.6423 11.3152 14.9849 13.1397 14.9849Z" stroke="#0078FF" stroke-width="2" stroke-linecap="round" stroke-linejoin="round"/>
<path d="M21.2884 14.985C21.1418 15.2865 21.0981 15.6209 21.1628 15.9452C21.2276 16.2694 21.3979 16.5686 21.6518 16.8042L21.7178 16.8642C21.9226 17.0498 22.085 17.2703 22.1959 17.513C22.3067 17.7557 22.3638 18.0158 22.3638 18.2785C22.3638 18.5412 22.3067 18.8014 22.1959 19.0441C22.085 19.2868 21.9226 19.5072 21.7178 19.6929C21.5133 19.8788 21.2704 20.0262 21.0031 20.1268C20.7357 20.2274 20.4491 20.2792 20.1597 20.2792C19.8703 20.2792 19.5837 20.2274 19.3163 20.1268C19.049 20.0262 18.8061 19.8788 18.6015 19.6929L18.5355 19.6329C18.2759 19.4025 17.9463 19.2479 17.5891 19.1891C17.2319 19.1303 16.8635 19.17 16.5313 19.3031C16.2056 19.4298 15.9279 19.6402 15.7322 19.9083C15.5366 20.1765 15.4316 20.4908 15.4302 20.8124V20.9823C15.4302 21.5125 15.1981 22.021 14.7851 22.3959C14.3721 22.7708 13.8119 22.9814 13.2278 22.9814C12.6437 22.9814 12.0835 22.7708 11.6705 22.3959C11.2575 22.021 11.0255 21.5125 11.0255 20.9823V20.8924C11.017 20.5615 10.899 20.2407 10.6869 19.9715C10.4748 19.7023 10.1784 19.4973 9.83622 19.383C9.50409 19.25 9.13566 19.2103 8.77844 19.2691C8.42123 19.3279 8.09161 19.4825 7.83209 19.7129L7.76602 19.7729C7.56148 19.9587 7.31859 20.1062 7.05123 20.2068C6.78387 20.3074 6.49728 20.3592 6.20786 20.3592C5.91844 20.3592 5.63186 20.3074 5.3645 20.2068C5.09714 20.1062 4.85424 19.9587 4.6497 19.7729C4.44494 19.5872 4.2825 19.3667 4.17167 19.124C4.06083 18.8814 4.00379 18.6212 4.00379 18.3585C4.00379 18.0958 4.06083 17.8356 4.17167 17.593C4.2825 17.3503 4.44494 17.1298 4.6497 16.9441L4.71578 16.8842C4.96964 16.6486 5.13993 16.3494 5.2047 16.0251C5.26947 15.7009 5.22574 15.3664 5.07916 15.065C4.93957 14.7693 4.7078 14.5172 4.41236 14.3396C4.11693 14.162 3.77074 14.0667 3.41639 14.0654H3.2292C2.6451 14.0654 2.08492 13.8548 1.67191 13.4799C1.25889 13.105 1.02686 12.5965 1.02686 12.0663C1.02686 11.5361 1.25889 11.0276 1.67191 10.6527C2.08492 10.2778 2.6451 10.0672 3.2292 10.0672H3.3283C3.69278 10.0594 4.04627 9.95235 4.34281 9.75983C4.63935 9.56731 4.86522 9.29826 4.99107 8.98766C5.13765 8.68618 5.18138 8.35175 5.11661 8.0275C5.05184 7.70325 4.88154 7.40404 4.62768 7.16847L4.56161 7.10849C4.35685 6.92283 4.1944 6.70235 4.08357 6.45966C3.97274 6.21697 3.91569 5.95684 3.91569 5.69412C3.91569 5.43141 3.97274 5.17127 4.08357 4.92858C4.1944 4.68589 4.35685 4.46541 4.56161 4.27975C4.76615 4.09388 5.00904 3.94643 5.2764 3.84582C5.54376 3.74522 5.83035 3.69344 6.11977 3.69344C6.40919 3.69344 6.69577 3.74522 6.96313 3.84582C7.23049 3.94643 7.47338 4.09388 7.67792 4.27975L7.74399 4.33972C8.00352 4.57016 8.33314 4.72474 8.69035 4.78353C9.04756 4.84232 9.41599 4.80263 9.74812 4.66958H9.83622C10.1619 4.54287 10.4397 4.33248 10.6353 4.06431C10.831 3.79614 10.936 3.48189 10.9374 3.16025V2.99032C10.9374 2.46013 11.1694 1.95164 11.5824 1.57674C11.9955 1.20183 12.5556 0.991211 13.1397 0.991211C13.7238 0.991211 14.284 1.20183 14.697 1.57674C15.11 1.95164 15.3421 2.46013 15.3421 2.99032V3.08028C15.3435 3.40193 15.4485 3.71618 15.6441 3.98435C15.8398 4.25252 16.1175 4.46291 16.4432 4.58961C16.7754 4.72267 17.1438 4.76236 17.501 4.70357C17.8582 4.64477 18.1878 4.49019 18.4474 4.25976L18.5134 4.19979C18.718 4.01392 18.9609 3.86646 19.2282 3.76586C19.4956 3.66526 19.7822 3.61347 20.0716 3.61347C20.361 3.61347 20.6476 3.66526 20.915 3.76586C21.1823 3.86646 21.4252 4.01392 21.6297 4.19979C21.8345 4.38545 21.997 4.60593 22.1078 4.84862C22.2186 5.09131 22.2757 5.35144 22.2757 5.61416C22.2757 5.87687 22.2186 6.13701 22.1078 6.3797C21.997 6.62239 21.8345 6.84287 21.6297 7.02853L21.5637 7.0885C21.3098 7.32408 21.1395 7.62328 21.0748 7.94753C21.01 8.27178 21.0537 8.60621 21.2003 8.9077V8.98766C21.3399 9.2833 21.5717 9.53543 21.8671 9.71303C22.1625 9.89063 22.5087 9.98593 22.8631 9.98722H23.0503C23.6344 9.98722 24.1945 10.1978 24.6075 10.5727C25.0206 10.9476 25.2526 11.4561 25.2526 11.9863C25.2526 12.5165 25.0206 13.025 24.6075 13.3999C24.1945 13.7748 23.6344 13.9854 23.0503 13.9854H22.9512C22.5968 13.9867 22.2506 14.082 21.9552 14.2596C21.6597 14.4372 21.428 14.6894 21.2884 14.985V14.985Z" stroke="#0078FF" stroke-width="2" stroke-linecap="round" stroke-linejoin="round"/>
</svg>
