<svg width="36" height="35" viewBox="0 0 36 35" fill="none" xmlns="http://www.w3.org/2000/svg">
<rect x="0.953697" y="0.272461" width="34.962" height="34.023" rx="7.3179" fill="#2196F3"/>
<path fill-rule="evenodd" clip-rule="evenodd" d="M13.7933 9.84124C13.2946 9.34965 13.2946 8.55263 13.7933 8.06104L17.5046 4.40238C18.0033 3.91079 18.8118 3.91079 19.3105 4.40238L23.0219 8.06104C23.5205 8.55263 23.5205 9.34965 23.0219 9.84124L19.3105 13.4999C18.8118 13.9915 18.0033 13.9915 17.5046 13.4999L13.7933 9.84124ZM17.727 17.7403C17.4777 17.4945 17.4777 17.096 17.727 16.8502L17.9735 16.6072C18.2229 16.3614 18.6271 16.3614 18.8765 16.6072L19.123 16.8502C19.3723 17.096 19.3723 17.4945 19.1229 17.7403L18.8765 17.9833C18.6271 18.2291 18.2229 18.2291 17.9735 17.9833L17.727 17.7403ZM22.5521 16.4239C22.0534 16.9155 22.0534 17.7125 22.5521 18.2041L26.2634 21.8627C26.7621 22.3543 27.5706 22.3543 28.0693 21.8627L31.7807 18.2041C32.2793 17.7125 32.2793 16.9155 31.7807 16.4239L28.0693 12.7652C27.5706 12.2736 26.7621 12.2736 26.2634 12.7652L22.5521 16.4239ZM5.08871 18.1947C4.59004 17.7031 4.59004 16.9061 5.08871 16.4145L8.80008 12.7558C9.29875 12.2643 10.1073 12.2643 10.6059 12.7558L14.3173 16.4145C14.816 16.9061 14.816 17.7031 14.3173 18.1947L10.6059 21.8534C10.1073 22.3449 9.29875 22.3449 8.80008 21.8534L5.08871 18.1947ZM13.7933 24.7271C13.2946 25.2187 13.2946 26.0157 13.7933 26.5073L17.5046 30.1659C18.0033 30.6575 18.8118 30.6575 19.3105 30.1659L23.0219 26.5073C23.5205 26.0157 23.5205 25.2187 23.0219 24.7271L19.3105 21.0684C18.8118 20.5768 18.0033 20.5768 17.5046 21.0684L13.7933 24.7271Z" fill="white"/>
</svg>
